<?xml version="1.0" encoding="UTF-8" standalone="no"?>
<svg width="4px" height="22px" viewBox="0 0 4 22" version="1.1" xmlns="http://www.w3.org/2000/svg" xmlns:xlink="http://www.w3.org/1999/xlink" xmlns:sketch="http://www.bohemiancoding.com/sketch/ns">
    <title>Slice 1</title>
    <description>Created with Sketch (http://www.bohemiancoding.com/sketch)</description>
    <defs></defs>
    <g id="Page 1" stroke="none" stroke-width="1" fill="none" fill-rule="evenodd" fill-opacity="0.2">
        <g id="Artboard 1" fill="#FFFFFF">
            <g id="Group">
                <path d="M2,4 C3.10456955,4 4,3.10456955 4,2 C4,0.895430446 3.10456955,0 2,0 C0.895430446,0 0,0.895430446 0,2 C0,3.10456955 0.895430446,4 2,4 Z M2,4" id="Oval 1"></path>
                <path d="M2,13 C3.10456955,13 4,12.1045696 4,11 C4,9.89543045 3.10456955,9 2,9 C0.895430446,9 0,9.89543045 0,11 C0,12.1045696 0.895430446,13 2,13 Z M2,13" id="Oval 1 copy"></path>
                <path d="M2,22 C3.10456955,22 4,21.1045696 4,20 C4,18.8954304 3.10456955,18 2,18 C0.895430446,18 0,18.8954304 0,20 C0,21.1045696 0.895430446,22 2,22 Z M2,22" id="Oval 1 copy"></path>
            </g>
        </g>
    </g>
</svg>